<?xml version="1.0" encoding="UTF-8"?>
<svg id="Layer_1" data-name="Layer 1" xmlns="http://www.w3.org/2000/svg" viewBox="0 0 16 34">
  <defs>
    <style>
      .cls-1 {
        fill: none;
      }

      .cls-1, .cls-2, .cls-3, .cls-4 {
        stroke-width: 0px;
      }

      .cls-3 {
        fill: #d42900;
      }

      .cls-4 {
        fill: #7f1c00;
      }
    </style>
  </defs>
  <path class="cls-1" d="m6.3,20.25c-2.48.74-4.3,3.04-4.3,5.75,0,3.31,2.69,6,6,6s6-2.69,6-6c0-2.64-1.71-4.88-4.09-5.68-1.59,3.64-1.91,5.68-1.91,5.68,0,0-.05-2.44-1.7-5.75Z"/>
  <path class="cls-2" d="m10.76,18.5c-.31.64-.59,1.25-.84,1.82,2.37.8,4.09,3.04,4.09,5.68,0,3.31-2.69,6-6,6s-6-2.69-6-6c0-2.72,1.82-5.02,4.3-5.75-.28-.57-.61-1.16-.99-1.77-3.09,1.11-5.31,4.06-5.31,7.52,0,4.41,3.59,8,8,8s8-3.59,8-8c0-3.44-2.19-6.37-5.24-7.5Z"/>
  <path class="cls-2" d="m8.81,23.13c-.64,1.85-.81,2.87-.81,2.87,0,0-.03-1.15-.57-2.94-1.38.27-2.43,1.48-2.43,2.94,0,1.66,1.34,3,3,3s3-1.34,3-3c0-1.37-.93-2.52-2.19-2.87Z"/>
  <path class="cls-3" d="m8,0C3.58,0,0,3.58,0,8c0,1.24.28,2.41.78,3.45.09.19.21.37.31.55,0,0,1.91,3,3.91,6,.1.16.21.31.3.47,0,0,0,0,0,0,.38.61.71,1.2.99,1.77.52,1.04.88,1.99,1.13,2.81.55,1.79.57,2.94.57,2.94,0,0,.17-1.02.81-2.87.27-.79.63-1.72,1.1-2.81.25-.57.53-1.17.84-1.82.08-.17.16-.33.24-.5,1-2,3.92-6,3.92-6,.68-1.18,1.08-2.54,1.08-4C16,3.58,12.42,0,8,0Zm0,11c-1.66,0-3-1.34-3-3s1.34-3,3-3,3,1.34,3,3-1.34,3-3,3Z"/>
  <circle class="cls-4" cx="8" cy="8" r="3"/>
</svg>